<svg width="126" height="13" viewBox="0 0 126 13" fill="none" xmlns="http://www.w3.org/2000/svg">
<path d="M0.242327 11.973L22.9496 1.9763L23.1919 11.9973L0.242327 11.973Z" fill="black"/>
<path d="M22.9496 0.178615L0.242327 10.1753L0 0.154297L22.9496 0.178615Z" fill="black"/>
<path d="M43.439 4.81972H40.2536C40.2765 4.5543 40.2612 4.31504 40.2077 4.10196C40.1543 3.88888 40.0626 3.7057 39.9327 3.55243C39.8029 3.39542 39.6329 3.27579 39.4228 3.19355C39.2128 3.11131 38.9626 3.07018 38.6723 3.07018C38.1147 3.07018 37.6162 3.20663 37.177 3.47953C36.7377 3.74869 36.373 4.13561 36.0827 4.64028C35.7924 5.14121 35.5862 5.73934 35.4639 6.43467C35.357 7.10757 35.3532 7.66645 35.4525 8.11131C35.5556 8.55617 35.7561 8.88888 36.0541 9.10944C36.3558 9.33 36.7473 9.44028 37.2285 9.44028C37.5494 9.44028 37.8435 9.40289 38.1108 9.32813C38.382 9.25336 38.6227 9.14682 38.8327 9.0085C39.0466 8.86645 39.228 8.69822 39.377 8.50383C39.5298 8.3057 39.6463 8.08701 39.7265 7.84775H42.9349C42.8126 8.33374 42.5949 8.83093 42.2817 9.33934C41.9685 9.84402 41.5637 10.3094 41.0671 10.7356C40.5706 11.158 39.9862 11.5001 39.314 11.7618C38.6418 12.0235 37.8855 12.1543 37.0452 12.1543C35.9452 12.1543 34.9961 11.9188 34.1978 11.4478C33.4033 10.9767 32.8266 10.2889 32.4676 9.3842C32.1123 8.47953 32.0417 7.37673 32.2556 6.07579C32.4695 4.81972 32.8915 3.76738 33.5217 2.91878C34.1519 2.07018 34.9178 1.43093 35.8192 1.00103C36.7206 0.571119 37.6792 0.356166 38.6952 0.356166C39.4629 0.356166 40.1505 0.455231 40.7577 0.653362C41.3689 0.851493 41.8826 1.14121 42.2989 1.52252C42.7191 1.90009 43.0284 2.36551 43.2271 2.91878C43.4257 3.47205 43.4963 4.1057 43.439 4.81972Z" fill="black"/>
<path d="M46.1717 11.9973H42.7342L46.6071 0.513175H50.9613L54.8343 11.9973H51.3968L48.8301 3.67579H48.7384L46.1717 11.9973ZM45.53 7.46645H51.9926V9.79916H45.53V7.46645Z" fill="black"/>
<path d="M54.6737 11.9973V0.513175H59.7383C60.6092 0.513175 61.3712 0.668315 62.0243 0.978596C62.6775 1.28888 63.1854 1.73561 63.5483 2.31878C63.9111 2.90196 64.0926 3.60103 64.0926 4.41598C64.0926 5.23841 63.9054 5.93187 63.5311 6.49635C63.1606 7.06084 62.6392 7.48701 61.967 7.77486C61.2986 8.06271 60.5175 8.20663 59.6238 8.20663H56.5987V5.7842H58.9821C59.3564 5.7842 59.6753 5.73934 59.9389 5.64962C60.2062 5.55617 60.4106 5.4085 60.5519 5.20663C60.697 5.00476 60.7696 4.74121 60.7696 4.41598C60.7696 4.08701 60.697 3.81972 60.5519 3.61411C60.4106 3.40476 60.2062 3.25149 59.9389 3.1543C59.6753 3.05336 59.3564 3.00289 58.9821 3.00289H57.8592V11.9973H54.6737ZM61.5488 6.72626L64.4822 11.9973H61.0217L58.1571 6.72626H61.5488Z" fill="black"/>
<path d="M66.5415 3.02533L66.9769 0.513175H77.1749L76.7395 3.02533H73.2103L71.6978 11.9973H68.5582L70.0707 3.02533H66.5415Z" fill="black"/>
<path d="M75.8685 11.9973V0.513175H80.9331C81.804 0.513175 82.566 0.668315 83.2191 0.978596C83.8722 1.28888 84.3802 1.73561 84.7431 2.31878C85.1059 2.90196 85.2873 3.60103 85.2873 4.41598C85.2873 5.23841 85.1002 5.93187 84.7259 6.49635C84.3554 7.06084 83.834 7.48701 83.1618 7.77486C82.4934 8.06271 81.7123 8.20663 80.8185 8.20663H77.7935V5.7842H80.1769C80.5512 5.7842 80.8701 5.73934 81.1336 5.64962C81.401 5.55617 81.6053 5.4085 81.7467 5.20663C81.8918 5.00476 81.9644 4.74121 81.9644 4.41598C81.9644 4.08701 81.8918 3.81972 81.7467 3.61411C81.6053 3.40476 81.401 3.25149 81.1336 3.1543C80.8701 3.05336 80.5512 3.00289 80.1769 3.00289H79.0539V11.9973H75.8685ZM82.7436 6.72626L85.6769 11.9973H82.2165L79.3519 6.72626H82.7436Z" fill="black"/>
<path d="M88.4024 11.9973H84.9649L88.8379 0.513175H93.1921L97.065 11.9973H93.6275L91.0608 3.67579H90.9691L88.4024 11.9973ZM87.7608 7.46645H94.2233V9.79916H87.7608V7.46645Z" fill="black"/>
<path d="M101.419 11.9973H96.9044V0.513175H101.373C102.58 0.513175 103.623 0.743082 104.501 1.20289C105.384 1.65897 106.064 2.31691 106.541 3.17673C107.022 4.0328 107.263 5.05897 107.263 6.25523C107.263 7.45149 107.024 8.47953 106.547 9.33934C106.069 10.1954 105.393 10.8534 104.519 11.3132C103.644 11.7693 102.611 11.9973 101.419 11.9973ZM100.09 9.35056H101.304C101.885 9.35056 102.38 9.25897 102.788 9.07579C103.201 8.89261 103.514 8.57673 103.728 8.12813C103.946 7.67953 104.055 7.05523 104.055 6.25523C104.055 5.45523 103.944 4.83093 103.722 4.38233C103.505 3.93374 103.184 3.61785 102.76 3.43467C102.34 3.25149 101.824 3.1599 101.213 3.1599H100.09V9.35056Z" fill="black"/>
<path d="M107.446 11.9973V0.513175H115.902V3.02533H110.632V4.99916H115.467V7.51131H110.632V9.48514H115.879V11.9973H107.446Z" fill="black"/>
<path d="M116.192 11.9973V0.513175H121.256C122.127 0.513175 122.889 0.668315 123.542 0.978596C124.195 1.28888 124.703 1.73561 125.066 2.31878C125.429 2.90196 125.61 3.60103 125.61 4.41598C125.61 5.23841 125.423 5.93187 125.049 6.49635C124.678 7.06084 124.157 7.48701 123.485 7.77486C122.816 8.06271 122.035 8.20663 121.142 8.20663H118.117V5.7842H120.5C120.874 5.7842 121.193 5.73934 121.457 5.64962C121.724 5.55617 121.928 5.4085 122.07 5.20663C122.215 5.00476 122.287 4.74121 122.287 4.41598C122.287 4.08701 122.215 3.81972 122.07 3.61411C121.928 3.40476 121.724 3.25149 121.457 3.1543C121.193 3.05336 120.874 3.00289 120.5 3.00289H119.377V11.9973H116.192ZM123.067 6.72626L126 11.9973H122.54L119.675 6.72626H123.067Z" fill="black"/>
</svg>
